<svg width="144" height="32" viewBox="0 0 144 32" fill="none" xmlns="http://www.w3.org/2000/svg">
<path d="M16 0C24.2338 0 31.0258 6.12735 32 14.0387H24.1909C23.3017 10.3671 19.9719 7.63871 16 7.63871C12.0281 7.63871 8.69825 10.3671 7.80909 14.0387H0C0.974219 6.12735 7.76619 0 16 0Z" fill="#EA5D60"/>
<path d="M24.1909 17.9613H32C31.0258 25.8726 24.2338 32 16 32C7.76619 32 0.974219 25.8726 0 17.9613H7.80909C8.69825 21.6329 12.0281 24.3613 16 24.3613C19.9719 24.3613 23.3017 21.6329 24.1909 17.9613Z" fill="#EA5D60"/>
<path d="M16 21.2645C18.9293 21.2645 21.304 18.9075 21.304 16C21.304 13.0925 18.9293 10.7355 16 10.7355C13.0707 10.7355 10.696 13.0925 10.696 16C10.696 18.9075 13.0707 21.2645 16 21.2645Z" fill="#EA5D60"/>
<path d="M46.533 19.3976V25.7431H42V7.04046H49.5034C50.9413 7.04046 52.2112 7.30593 53.3132 7.83687C54.4239 8.35924 55.2806 9.10854 55.8833 10.0848C56.4946 11.0525 56.8002 12.1529 56.8002 13.386C56.8002 15.21 56.1416 16.6701 54.8243 17.7662C53.5156 18.8538 51.7161 19.3976 49.4259 19.3976H46.533ZM46.533 15.9165H49.5034C50.3816 15.9165 51.0489 15.6981 51.5052 15.2614C51.9701 14.8247 52.2026 14.2081 52.2026 13.4117C52.2026 12.5382 51.9658 11.8403 51.4923 11.3179C51.0187 10.7955 50.373 10.5301 49.5551 10.5215H46.533V15.9165Z" fill="#747476"/>
<path d="M58.2983 18.6654C58.2983 17.2781 58.5695 16.045 59.1119 14.966C59.6543 13.8784 60.4335 13.0435 61.4495 12.4611C62.4654 11.8788 63.6579 11.5877 65.0268 11.5877C67.119 11.5877 68.7678 12.2342 69.9732 13.5273C71.1785 14.8118 71.7812 16.563 71.7812 18.781V18.9351C71.7812 21.1017 71.1742 22.8229 69.9602 24.0989C68.7549 25.3663 67.119 26 65.0527 26C63.0638 26 61.4667 25.4091 60.2613 24.2274C59.056 23.037 58.4059 21.4271 58.3112 19.3976L58.2983 18.6654ZM62.6505 18.9351C62.6505 20.2197 62.8529 21.1616 63.2575 21.7611C63.6622 22.3605 64.2606 22.6602 65.0527 22.6602C66.6024 22.6602 67.3945 21.4742 67.429 19.1021V18.6654C67.429 16.1734 66.6283 14.9274 65.0268 14.9274C63.5718 14.9274 62.784 16.0021 62.6635 18.1516L62.6505 18.9351Z" fill="#747476"/>
<path d="M79.3105 20.5665L78.0836 21.7868V25.7431H73.7313V6H78.0836V16.4817L78.5227 15.9037L81.803 11.8446H87.0205L82.1259 17.5607L87.3434 25.7431H82.3583L79.3105 20.5665Z" fill="#747476"/>
<path d="M94.666 26C92.5222 26 90.7873 25.3663 89.4614 24.0989C88.1355 22.8229 87.4725 21.1659 87.4725 19.1278V18.7681C87.4725 17.3466 87.7351 16.0921 88.2603 15.0045C88.7941 13.9169 89.569 13.0777 90.585 12.4868C91.6009 11.8874 92.8063 11.5877 94.2011 11.5877C96.1641 11.5877 97.7139 12.1957 98.8503 13.4117C99.9868 14.6191 100.555 16.3061 100.555 18.4727V20.1554H91.9023C92.0572 20.9347 92.3973 21.547 92.9225 21.9923C93.4477 22.4376 94.1279 22.6602 94.963 22.6602C96.3406 22.6602 97.4168 22.1807 98.1917 21.2216L100.181 23.5594C99.6381 24.3044 98.8676 24.8996 97.8688 25.3449C96.8787 25.7816 95.8111 26 94.666 26ZM94.1752 14.9274C92.901 14.9274 92.1433 15.7666 91.9023 17.4451H96.2932V17.1111C96.3105 16.4175 96.134 15.8823 95.7637 15.5055C95.3935 15.1201 94.864 14.9274 94.1752 14.9274ZM94.1236 6H98.7212L95.1309 10.0334H91.5794L94.1236 6Z" fill="#747476"/>
<path d="M101.769 18.6911C101.769 16.4903 102.247 14.7562 103.203 13.4888C104.158 12.2214 105.493 11.5877 107.206 11.5877C108.455 11.5877 109.505 12.0758 110.357 13.052V6.01285H114.722V25.7431H110.809L110.59 24.253C109.694 25.4177 108.558 26 107.18 26C105.519 26 104.201 25.3663 103.228 24.0989C102.256 22.8315 101.769 21.0289 101.769 18.6911ZM106.121 18.9608C106.121 21.4271 106.845 22.6602 108.291 22.6602C109.255 22.6602 109.944 22.2578 110.357 21.4528V16.1606C109.961 15.3385 109.281 14.9274 108.317 14.9274C106.974 14.9274 106.246 16.0064 106.134 18.1644L106.121 18.9608Z" fill="#747476"/>
<path d="M123.956 26C121.813 26 120.078 25.3663 118.752 24.0989C117.426 22.8229 116.763 21.1659 116.763 19.1278V18.7681C116.763 17.3466 117.026 16.0921 117.551 15.0045C118.085 13.9169 118.859 13.0777 119.875 12.4868C120.891 11.8874 122.097 11.5877 123.492 11.5877C125.455 11.5877 127.004 12.1957 128.141 13.4117C129.277 14.6191 129.846 16.3061 129.846 18.4727V20.1554H121.193C121.348 20.9347 121.688 21.547 122.213 21.9923C122.738 22.4376 123.418 22.6602 124.253 22.6602C125.631 22.6602 126.707 22.1807 127.482 21.2216L129.471 23.5594C128.929 24.3044 128.158 24.8996 127.159 25.3449C126.169 25.7816 125.102 26 123.956 26ZM123.466 14.9274C122.191 14.9274 121.434 15.7666 121.193 17.4451H125.584V17.1111C125.601 16.4175 125.424 15.8823 125.054 15.5055C124.684 15.1201 124.154 14.9274 123.466 14.9274Z" fill="#747476"/>
<path d="M137.271 15.6724L139.299 11.8446H143.819L140.139 18.614L144 25.7431H139.454L137.259 21.6326L135.102 25.7431H130.53L134.404 18.614L130.737 11.8446H135.308L137.271 15.6724Z" fill="#747476"/>
</svg>
