<svg width="372" height="60" viewBox="0 0 372 60" fill="none" xmlns="http://www.w3.org/2000/svg">
<path d="M31.2852 3.07989C34.7434 3.07989 37.8232 3.89039 40.5249 5.51138C43.2266 7.07835 45.3339 9.26669 46.8468 12.0764C48.3597 14.8321 49.1162 17.939 49.1162 21.3971V22.4508C49.1162 25.9089 48.3597 29.0428 46.8468 31.8526C45.3339 34.6623 43.2266 36.8777 40.5249 38.4987C37.8232 40.0656 34.7434 40.8491 31.2852 40.8491H17.912V58.8422H0V3.07989H31.2852ZM17.912 27.8001H25.2875C27.1787 27.8001 28.5836 27.3138 29.5021 26.3412C30.4747 25.3686 30.961 24.0448 30.961 22.3697V21.7213C30.961 19.9923 30.4747 18.6685 29.5021 17.7499C28.5836 16.7773 27.1787 16.291 25.2875 16.291H17.912V27.8001Z" fill="#F04E54"/>
<path d="M139.106 16.0479H157.91L142.105 33.3115L158.315 58.8422H139.998L131.001 44.1721L125.409 49.6025V58.8422H109.28V0H125.409V32.4199L139.106 16.0479Z" fill="#F04E54"/>
<path d="M177.685 10.8607L185.223 0.0810483H200.784L200.947 0.405248L188.06 10.8607H177.685ZM185.466 15.0753C193.301 15.0753 199.271 16.9124 203.378 20.5866C207.539 24.2609 209.619 29.8804 209.619 37.445V40.2007H177.523C177.523 43.2806 178.199 45.604 179.549 47.171C180.954 48.7379 183.143 49.5214 186.114 49.5214C188.816 49.5214 190.788 48.9541 192.031 47.8194C193.328 46.6847 193.976 45.1718 193.976 43.2806H209.619C209.619 48.4678 207.647 52.5203 203.702 55.4381C199.758 58.3559 194.003 59.8147 186.439 59.8147C178.496 59.8147 172.336 57.9776 167.959 54.3034C163.583 50.5751 161.394 44.9556 161.394 37.445C161.394 30.0965 163.529 24.5311 167.797 20.7487C172.066 16.9664 177.955 15.0753 185.466 15.0753ZM186.114 25.3686C181.035 25.3686 178.199 27.7731 177.604 32.582H193.328C193.328 30.3667 192.679 28.6106 191.383 27.3138C190.14 26.017 188.384 25.3686 186.114 25.3686Z" fill="#F04E54"/>
<path d="M248.068 58.7611L246.69 52.6824C243.557 57.3833 239.018 59.7337 233.074 59.7337C227.293 59.7337 222.835 57.8425 219.701 54.0602C216.567 50.2779 215 44.6855 215 37.2829C215 29.9344 216.567 24.396 219.701 20.6677C222.835 16.8854 227.293 14.9942 233.074 14.9942C237.991 14.9942 241.99 16.6422 245.069 19.9382V0H261.198V58.7611H248.068ZM238.099 26.9085C233.452 26.9085 231.129 29.6912 231.129 35.2567V39.5523C231.129 45.0637 233.452 47.8194 238.099 47.8194C240.477 47.8194 242.26 46.9819 243.448 45.3068C244.637 43.6318 245.232 41.4435 245.232 38.7418V36.0672C245.232 33.3655 244.637 31.1772 243.448 29.5021C242.26 27.7731 240.477 26.9085 238.099 26.9085Z" fill="#A2A2A2"/>
<path d="M293.131 14.9942C300.966 14.9942 306.937 16.8313 311.043 20.5056C315.204 24.1799 317.284 29.7993 317.284 37.364V40.1197H285.188C285.188 43.1995 285.864 45.523 287.215 47.0899C288.62 48.6569 290.808 49.4404 293.78 49.4404C296.481 49.4404 298.454 48.873 299.696 47.7383C300.993 46.6036 301.642 45.0907 301.642 43.1995H317.284C317.284 48.3867 315.312 52.4392 311.368 55.357C307.423 58.2748 301.669 59.7337 294.104 59.7337C286.161 59.7337 280.001 57.8966 275.625 54.2223C271.248 50.494 269.06 44.8746 269.06 37.364C269.06 30.0154 271.194 24.45 275.463 20.6677C279.731 16.8854 285.621 14.9942 293.131 14.9942ZM293.78 25.2875C288.701 25.2875 285.864 27.692 285.27 32.501H300.993C300.993 30.2856 300.345 28.5295 299.048 27.2327C297.805 25.9359 296.049 25.2875 293.78 25.2875Z" fill="#A2A2A2"/>
<path d="M371.719 58.7611H352.916L344.811 45.3068H344.487L336.301 58.7611H318.389L334.842 36.0672L320.01 15.9668H338.975L345.783 27.3138H346.108L352.916 15.9668H370.747L355.671 36.4724L371.719 58.7611Z" fill="#A2A2A2"/>
<path d="M84.0443 36.8428C84.0443 40.4916 81.0622 43.4622 77.3678 43.4622C73.6734 43.4622 70.6913 40.4916 70.6913 36.8428C70.6913 33.194 73.6734 30.2234 77.3678 30.2234C81.0622 30.2234 84.0443 33.194 84.0443 36.8428Z" fill="white" stroke="#A1A1A1" stroke-width="2"/>
<path d="M77.3678 49.9444C83.3054 49.9444 88.331 46.0479 89.9844 40.6815H99.3647C97.534 51.0835 88.3864 59 77.3678 59C66.3493 59 57.2017 51.0835 55.371 40.6815H64.7513C66.4047 46.0479 71.4303 49.9444 77.3678 49.9444Z" fill="white" stroke="#A1A1A1" stroke-width="2"/>
<path d="M77.3678 13.6858C89.2848 13.6858 99.1149 22.554 100.525 34.0043H89.2227C87.9358 28.6903 83.1164 24.7414 77.3678 24.7414C71.6192 24.7414 66.7999 28.6903 65.513 34.0043H54.2108C55.6208 22.554 65.4509 13.6858 77.3678 13.6858Z" fill="#F04E54"/>
</svg>
