<svg width="378" height="66" viewBox="0 0 378 66" fill="none" xmlns="http://www.w3.org/2000/svg">
<path d="M31.2852 6.07989C34.7434 6.07989 37.8232 6.89039 40.5249 8.51138C43.2266 10.0783 45.3339 12.2667 46.8468 15.0764C48.3597 17.8321 49.1162 20.939 49.1162 24.3971V25.4508C49.1162 28.9089 48.3597 32.0428 46.8468 34.8526C45.3339 37.6623 43.2266 39.8777 40.5249 41.4987C37.8232 43.0656 34.7434 43.8491 31.2852 43.8491H17.912V61.8422H0V6.07989H31.2852ZM17.912 30.8001H25.2875C27.1787 30.8001 28.5836 30.3138 29.5021 29.3412C30.4747 28.3686 30.961 27.0448 30.961 25.3697V24.7213C30.961 22.9923 30.4747 21.6685 29.5021 20.7499C28.5836 19.7773 27.1787 19.291 25.2875 19.291H17.912V30.8001Z" fill="#FF4040"/>
<path d="M139.106 19.0479H157.91L142.105 36.3115L158.315 61.8422H139.998L131.001 47.1721L125.409 52.6025V61.8422H109.28V3H125.409V35.4199L139.106 19.0479Z" fill="#FF4040"/>
<path d="M177.685 13.8607L185.223 3.08105H200.784L200.947 3.40525L188.06 13.8607H177.685ZM185.466 18.0753C193.301 18.0753 199.271 19.9124 203.378 23.5866C207.539 27.2609 209.619 32.8804 209.619 40.445V43.2007H177.523C177.523 46.2806 178.199 48.604 179.549 50.171C180.954 51.7379 183.143 52.5214 186.114 52.5214C188.816 52.5214 190.788 51.9541 192.031 50.8194C193.328 49.6847 193.976 48.1718 193.976 46.2806H209.619C209.619 51.4678 207.647 55.5203 203.702 58.4381C199.758 61.3559 194.003 62.8147 186.439 62.8147C178.496 62.8147 172.336 60.9776 167.959 57.3034C163.583 53.5751 161.394 47.9556 161.394 40.445C161.394 33.0965 163.529 27.5311 167.797 23.7487C172.066 19.9664 177.955 18.0753 185.466 18.0753ZM186.114 28.3686C181.035 28.3686 178.199 30.7731 177.604 35.582H193.328C193.328 33.3667 192.679 31.6106 191.383 30.3138C190.14 29.017 188.384 28.3686 186.114 28.3686Z" fill="#FF4040"/>
<path d="M246.605 62.0927L246.87 63.2611H248.068H261.198H262.698V61.7611V3V1.5H261.198H245.069H243.569V3V19.6322C240.623 17.5334 237.104 16.4942 233.074 16.4942C226.936 16.4942 222.02 18.5208 218.549 22.7067C215.1 26.8131 213.5 32.7566 213.5 40.2829C213.5 47.8647 215.1 53.8588 218.546 58.0172C222.016 62.2059 226.934 64.2337 233.074 64.2337C238.325 64.2337 242.643 62.5072 245.918 59.0587L246.605 62.0927ZM242.212 33.3519L242.219 33.3611L242.225 33.3702C243.185 34.7224 243.732 36.5793 243.732 39.0672V41.7418C243.732 44.2296 243.185 46.0866 242.225 47.4387C241.365 48.6507 240.079 49.3194 238.099 49.3194C236.08 49.3194 234.817 48.7329 234.018 47.7857C233.178 46.7895 232.629 45.1333 232.629 42.5523V38.2567C232.629 35.6459 233.179 33.9671 234.023 32.9569C234.823 31.9986 236.085 31.4085 238.099 31.4085C240.059 31.4085 241.344 32.0891 242.212 33.3519ZM293.78 50.9404C291.062 50.9404 289.361 50.2293 288.341 49.0995C287.511 48.13 286.936 46.6826 286.752 44.6197H317.284H318.784V43.1197V40.364C318.784 32.5346 316.625 26.4363 312.04 22.3847C307.562 18.3799 301.179 16.4942 293.131 16.4942C285.373 16.4942 279.088 18.4511 274.468 22.545C269.791 26.6892 267.56 32.7182 267.56 40.364C267.56 48.1703 269.845 54.2692 274.652 58.3642L274.652 58.3642L274.66 58.3712C279.396 62.3468 285.945 64.2337 294.104 64.2337C301.826 64.2337 307.951 62.7502 312.26 59.5629C316.611 56.3439 318.784 51.8305 318.784 46.1995V44.6995H317.284H301.642H300.142V46.1995C300.142 47.7056 299.646 48.7894 298.709 49.6095L298.697 49.6199L298.685 49.6306C297.844 50.3982 296.322 50.9404 293.78 50.9404ZM297.965 31.2706L297.976 31.2821L297.987 31.2934C298.672 31.9781 299.147 32.859 299.362 34.001H287.103C287.476 32.765 288.065 31.8691 288.813 31.2351C289.875 30.3346 291.465 29.7875 293.78 29.7875C295.754 29.7875 297.076 30.3424 297.965 31.2706ZM371.719 63.2611H374.648L372.937 60.8847L357.526 39.4816L371.955 19.8553L373.711 17.4668H370.747H352.916H352.066L351.63 18.1951L345.945 27.6685L340.261 18.1951L339.824 17.4668H338.975H320.01H317.038L318.803 19.8574L332.983 39.075L317.174 60.8807L315.448 63.2611H318.389H336.301H337.144L337.582 62.5408L344.643 50.9354L351.631 62.5351L352.068 63.2611H352.916H371.719Z" fill="white" stroke="#A1A1A1" stroke-width="3"/>
<path d="M84.0443 39.8428C84.0443 43.4916 81.0622 46.4622 77.3678 46.4622C73.6734 46.4622 70.6913 43.4916 70.6913 39.8428C70.6913 36.194 73.6734 33.2234 77.3678 33.2234C81.0622 33.2234 84.0443 36.194 84.0443 39.8428Z" fill="white" stroke="#A1A1A1" stroke-width="2"/>
<path d="M77.3678 52.9444C83.3054 52.9444 88.331 49.0479 89.9844 43.6815H99.3647C97.534 54.0835 88.3864 62 77.3678 62C66.3493 62 57.2017 54.0835 55.371 43.6815H64.7513C66.4047 49.0479 71.4303 52.9444 77.3678 52.9444Z" fill="white" stroke="#A1A1A1" stroke-width="2"/>
<path d="M77.3678 16.6858C89.2848 16.6858 99.1149 25.554 100.525 37.0043H89.2227C87.9358 31.6903 83.1164 27.7414 77.3678 27.7414C71.6192 27.7414 66.7999 31.6903 65.513 37.0043H54.2108C55.6208 25.554 65.4509 16.6858 77.3678 16.6858Z" fill="#FF4040"/>
</svg>
