<svg width="74" height="32" viewBox="0 0 74 32" fill="none" xmlns="http://www.w3.org/2000/svg">
<path d="M4 2C4 3.10457 3.10457 4 2 4C0.89543 4 0 3.10457 0 2C0 0.89543 0.89543 0 2 0C3.10457 0 4 0.89543 4 2Z" fill="url(#paint0_linear)"/>
<path d="M18 2C18 3.10457 17.1046 4 16 4C14.8954 4 14 3.10457 14 2C14 0.89543 14.8954 0 16 0C17.1046 0 18 0.89543 18 2Z" fill="url(#paint1_linear)"/>
<path d="M32 2C32 3.10457 31.1046 4 30 4C28.8954 4 28 3.10457 28 2C28 0.89543 28.8954 0 30 0C31.1046 0 32 0.89543 32 2Z" fill="url(#paint2_linear)"/>
<path d="M46 2C46 3.10457 45.1046 4 44 4C42.8954 4 42 3.10457 42 2C42 0.89543 42.8954 0 44 0C45.1046 0 46 0.89543 46 2Z" fill="url(#paint3_linear)"/>
<path d="M60 2C60 3.10457 59.1046 4 58 4C56.8954 4 56 3.10457 56 2C56 0.89543 56.8954 0 58 0C59.1046 0 60 0.89543 60 2Z" fill="url(#paint4_linear)"/>
<path d="M74 2C74 3.10457 73.1046 4 72 4C70.8954 4 70 3.10457 70 2C70 0.89543 70.8954 0 72 0C73.1046 0 74 0.89543 74 2Z" fill="url(#paint5_linear)"/>
<path d="M4 16C4 17.1046 3.10457 18 2 18C0.89543 18 0 17.1046 0 16C0 14.8954 0.89543 14 2 14C3.10457 14 4 14.8954 4 16Z" fill="url(#paint6_linear)"/>
<path d="M18 16C18 17.1046 17.1046 18 16 18C14.8954 18 14 17.1046 14 16C14 14.8954 14.8954 14 16 14C17.1046 14 18 14.8954 18 16Z" fill="url(#paint7_linear)"/>
<path d="M32 16C32 17.1046 31.1046 18 30 18C28.8954 18 28 17.1046 28 16C28 14.8954 28.8954 14 30 14C31.1046 14 32 14.8954 32 16Z" fill="url(#paint8_linear)"/>
<path d="M46 16C46 17.1046 45.1046 18 44 18C42.8954 18 42 17.1046 42 16C42 14.8954 42.8954 14 44 14C45.1046 14 46 14.8954 46 16Z" fill="url(#paint9_linear)"/>
<path d="M60 16C60 17.1046 59.1046 18 58 18C56.8954 18 56 17.1046 56 16C56 14.8954 56.8954 14 58 14C59.1046 14 60 14.8954 60 16Z" fill="url(#paint10_linear)"/>
<path d="M74 16C74 17.1046 73.1046 18 72 18C70.8954 18 70 17.1046 70 16C70 14.8954 70.8954 14 72 14C73.1046 14 74 14.8954 74 16Z" fill="url(#paint11_linear)"/>
<path d="M4 30C4 31.1046 3.10457 32 2 32C0.89543 32 0 31.1046 0 30C0 28.8954 0.89543 28 2 28C3.10457 28 4 28.8954 4 30Z" fill="url(#paint12_linear)"/>
<path d="M18 30C18 31.1046 17.1046 32 16 32C14.8954 32 14 31.1046 14 30C14 28.8954 14.8954 28 16 28C17.1046 28 18 28.8954 18 30Z" fill="url(#paint13_linear)"/>
<path d="M32 30C32 31.1046 31.1046 32 30 32C28.8954 32 28 31.1046 28 30C28 28.8954 28.8954 28 30 28C31.1046 28 32 28.8954 32 30Z" fill="url(#paint14_linear)"/>
<path d="M46 30C46 31.1046 45.1046 32 44 32C42.8954 32 42 31.1046 42 30C42 28.8954 42.8954 28 44 28C45.1046 28 46 28.8954 46 30Z" fill="url(#paint15_linear)"/>
<path d="M60 30C60 31.1046 59.1046 32 58 32C56.8954 32 56 31.1046 56 30C56 28.8954 56.8954 28 58 28C59.1046 28 60 28.8954 60 30Z" fill="url(#paint16_linear)"/>
<path d="M74 30C74 31.1046 73.1046 32 72 32C70.8954 32 70 31.1046 70 30C70 28.8954 70.8954 28 72 28C73.1046 28 74 28.8954 74 30Z" fill="url(#paint17_linear)"/>
<defs>
<linearGradient id="paint0_linear" x1="37" y1="0" x2="37" y2="32" gradientUnits="userSpaceOnUse">
<stop stop-color="white" stop-opacity="0.3"/>
<stop offset="1" stop-color="white" stop-opacity="0"/>
</linearGradient>
<linearGradient id="paint1_linear" x1="37" y1="0" x2="37" y2="32" gradientUnits="userSpaceOnUse">
<stop stop-color="white" stop-opacity="0.3"/>
<stop offset="1" stop-color="white" stop-opacity="0"/>
</linearGradient>
<linearGradient id="paint2_linear" x1="37" y1="0" x2="37" y2="32" gradientUnits="userSpaceOnUse">
<stop stop-color="white" stop-opacity="0.3"/>
<stop offset="1" stop-color="white" stop-opacity="0"/>
</linearGradient>
<linearGradient id="paint3_linear" x1="37" y1="0" x2="37" y2="32" gradientUnits="userSpaceOnUse">
<stop stop-color="white" stop-opacity="0.3"/>
<stop offset="1" stop-color="white" stop-opacity="0"/>
</linearGradient>
<linearGradient id="paint4_linear" x1="37" y1="0" x2="37" y2="32" gradientUnits="userSpaceOnUse">
<stop stop-color="white" stop-opacity="0.3"/>
<stop offset="1" stop-color="white" stop-opacity="0"/>
</linearGradient>
<linearGradient id="paint5_linear" x1="37" y1="0" x2="37" y2="32" gradientUnits="userSpaceOnUse">
<stop stop-color="white" stop-opacity="0.3"/>
<stop offset="1" stop-color="white" stop-opacity="0"/>
</linearGradient>
<linearGradient id="paint6_linear" x1="37" y1="0" x2="37" y2="32" gradientUnits="userSpaceOnUse">
<stop stop-color="white" stop-opacity="0.3"/>
<stop offset="1" stop-color="white" stop-opacity="0"/>
</linearGradient>
<linearGradient id="paint7_linear" x1="37" y1="0" x2="37" y2="32" gradientUnits="userSpaceOnUse">
<stop stop-color="white" stop-opacity="0.3"/>
<stop offset="1" stop-color="white" stop-opacity="0"/>
</linearGradient>
<linearGradient id="paint8_linear" x1="37" y1="0" x2="37" y2="32" gradientUnits="userSpaceOnUse">
<stop stop-color="white" stop-opacity="0.3"/>
<stop offset="1" stop-color="white" stop-opacity="0"/>
</linearGradient>
<linearGradient id="paint9_linear" x1="37" y1="0" x2="37" y2="32" gradientUnits="userSpaceOnUse">
<stop stop-color="white" stop-opacity="0.3"/>
<stop offset="1" stop-color="white" stop-opacity="0"/>
</linearGradient>
<linearGradient id="paint10_linear" x1="37" y1="0" x2="37" y2="32" gradientUnits="userSpaceOnUse">
<stop stop-color="white" stop-opacity="0.3"/>
<stop offset="1" stop-color="white" stop-opacity="0"/>
</linearGradient>
<linearGradient id="paint11_linear" x1="37" y1="0" x2="37" y2="32" gradientUnits="userSpaceOnUse">
<stop stop-color="white" stop-opacity="0.3"/>
<stop offset="1" stop-color="white" stop-opacity="0"/>
</linearGradient>
<linearGradient id="paint12_linear" x1="37" y1="0" x2="37" y2="32" gradientUnits="userSpaceOnUse">
<stop stop-color="white" stop-opacity="0.3"/>
<stop offset="1" stop-color="white" stop-opacity="0"/>
</linearGradient>
<linearGradient id="paint13_linear" x1="37" y1="0" x2="37" y2="32" gradientUnits="userSpaceOnUse">
<stop stop-color="white" stop-opacity="0.3"/>
<stop offset="1" stop-color="white" stop-opacity="0"/>
</linearGradient>
<linearGradient id="paint14_linear" x1="37" y1="0" x2="37" y2="32" gradientUnits="userSpaceOnUse">
<stop stop-color="white" stop-opacity="0.3"/>
<stop offset="1" stop-color="white" stop-opacity="0"/>
</linearGradient>
<linearGradient id="paint15_linear" x1="37" y1="0" x2="37" y2="32" gradientUnits="userSpaceOnUse">
<stop stop-color="white" stop-opacity="0.3"/>
<stop offset="1" stop-color="white" stop-opacity="0"/>
</linearGradient>
<linearGradient id="paint16_linear" x1="37" y1="0" x2="37" y2="32" gradientUnits="userSpaceOnUse">
<stop stop-color="white" stop-opacity="0.3"/>
<stop offset="1" stop-color="white" stop-opacity="0"/>
</linearGradient>
<linearGradient id="paint17_linear" x1="37" y1="0" x2="37" y2="32" gradientUnits="userSpaceOnUse">
<stop stop-color="white" stop-opacity="0.3"/>
<stop offset="1" stop-color="white" stop-opacity="0"/>
</linearGradient>
</defs>
</svg>
