<svg width="488" height="500" viewBox="0 0 488 500" fill="none" xmlns="http://www.w3.org/2000/svg">
<path d="M239.081 98.4674L213.062 95.9953C195.442 93.7978 186.084 91.4974 184.987 89.0939C184.095 87.2398 183.958 83.3256 184.575 77.3513C185.124 71.4457 185.981 67.9435 187.146 66.8448C189.066 64.9907 197.465 67.4972 212.342 74.3642C219.747 77.7977 226.98 81.4029 234.042 85.1797L212.342 60.2525C197.876 43.1536 190.609 33.4711 190.54 31.205C190.471 28.5269 192.425 25.5054 196.402 22.1405C200.379 18.7757 203.772 17.0933 206.583 17.0933C209.874 17.0933 216.079 23.8916 225.198 37.4883C234.933 52.0464 242.544 66.7074 248.029 81.4715L245.149 50.879C243.435 30.2093 243.126 19.1534 244.223 17.7113C245.595 15.9259 248.577 15.3079 253.171 15.8572C257.559 16.3379 260.541 17.4366 262.118 19.1534C263.283 20.3895 263.283 33.4711 262.118 58.3984L259.958 95.3772L239.081 98.4674Z" fill="#333333"/>
<path d="M365.782 499.26C361.531 500.153 355.155 497.956 346.654 492.668L335.238 484.428L318.681 492.153C306.957 496.96 299.312 498.711 295.747 497.406C293.69 496.651 292.833 492.359 293.176 484.531C293.519 477.252 294.65 470.316 296.57 463.724L373.187 437.663C383.814 443.775 393.995 452.462 403.731 463.724C413.946 475.604 417.443 483.569 414.221 487.621C412.232 490.162 405.239 489.303 393.241 485.046L375.861 477.835L373.392 488.033C371.199 494.969 368.662 498.711 365.782 499.26Z" fill="#333333"/>
<path d="M374.832 467.741L371.953 481.029C369.827 488.582 367.496 492.737 364.959 493.492C362.697 494.179 358.138 492.668 351.281 488.96C343.191 484.565 336.884 479.037 332.359 472.376C331.399 470.934 330.644 470.419 330.096 470.831C329.616 471.243 329.719 472.376 330.405 474.23L332.667 479.999C328.073 482.951 322.52 485.767 316.007 488.445C308.465 491.535 303.494 492.6 301.095 491.638C299.243 490.952 298.524 486.797 298.935 479.175C299.346 472.033 300.409 465.475 302.123 459.501L366.193 439.415C375.518 443.466 385.493 451.329 396.12 463.003C406.267 474.196 410.347 480.96 408.359 483.295C407.467 484.256 403.114 483.329 395.298 480.514C387.413 477.698 381.208 474.848 376.683 471.964L376.786 468.668C376.786 467.157 376.58 466.196 376.169 465.784C375.689 465.303 375.244 465.956 374.832 467.741Z" fill="#FAE2C1"/>
<path d="M340.586 465.063C333.73 467.192 324.817 469.286 313.847 471.346L299.347 473.818L300.272 464.445L368.662 439.312L377.815 446.522L364.651 454.144C354.641 459.569 346.62 463.209 340.586 465.063Z" fill="#E2ADA3"/>
<path d="M236.921 461.252C242.201 470.316 245.903 477.458 248.028 482.677C251.456 490.986 251.765 495.827 248.954 497.2C245.457 498.848 237.71 496.926 225.712 491.432L208.743 482.677L198.356 491.535C190.746 497.441 185.261 500.256 181.901 499.981C178.679 499.707 175.662 496.582 172.851 490.608L169.663 481.75L148.169 486.385L123.281 487.106C120.47 483.878 125.441 476.29 138.193 464.342C150.74 452.736 162.258 444.633 172.748 440.032L236.921 461.252Z" fill="#333333"/>
<path d="M241.241 478.041C244.601 486.144 245.458 490.711 243.812 491.741C242.167 492.771 237.436 491.535 229.62 488.033C221.804 484.599 215.976 481.2 212.137 477.835L213.371 473.921C213.714 472.41 213.542 471.586 212.857 471.449C212.171 471.312 211.486 471.827 210.8 472.994C208.332 476.977 203.567 481.509 196.505 486.591C189.443 491.741 184.575 494.11 181.901 493.698C177.239 493.011 173.605 486.11 171 472.994C170.726 471.621 170.349 471.003 169.869 471.14C169.458 471.277 169.183 472.136 169.046 473.715L169.252 476.29C162.739 478.556 154.751 480.41 145.29 481.853L130.378 482.471C129.349 480.479 134.114 474.573 144.673 464.754C156.534 453.629 168.498 445.629 180.564 440.753L230.546 457.44C234.659 463.827 238.224 470.694 241.241 478.041Z" fill="#FAE2C1"/>
<path d="M196.299 462.488C190.334 460.359 183.855 457.131 176.862 452.805L168.12 446.831L175.73 442.608L233.425 461.252L238.67 472.067L225.094 469.904C214.33 467.913 204.732 465.44 196.299 462.488Z" fill="#E2ADA3"/>
<path d="M92.9429 401.303C83.6872 393.337 76.7968 385.646 72.2717 378.229C67.6781 370.882 66.684 365.903 69.2893 363.294C73.5401 358.967 81.9731 360.169 94.5884 366.899C102.267 371.019 107.341 373.56 109.809 374.521C115.568 376.856 120.367 377.646 124.207 376.89L125.955 384.925C128.081 391.792 131.577 398.899 136.445 406.247C141.313 413.595 147.723 420.633 155.676 427.363C159.653 430.728 163.15 433.337 166.166 435.191C140.867 432.994 116.459 421.698 92.9429 401.303Z" fill="#333333"/>
<path d="M99.7303 399.449C90.6117 392.101 83.4127 385.165 78.1335 378.642C72.9229 372.049 71.1746 367.792 72.8886 365.869C74.5341 363.946 77.5165 363.809 81.8358 365.457C84.0983 366.35 88.8633 368.822 96.1308 372.873C111.351 381.388 123.075 385.131 131.303 384.101L163.286 430.556C144.089 428.427 122.904 418.058 99.7303 399.449Z" fill="#FFD424"/>
<path d="M116.185 411.706C100.348 401.749 88.7951 392.032 81.5276 382.556C99.6963 398.83 117.077 409.234 133.668 413.766C141.896 416.032 148.34 416.685 153.003 415.723L163.287 430.556C149.575 429.045 133.874 422.762 116.185 411.706Z" fill="#FB9E35"/>
<path d="M412.678 148.013C423.922 161.472 431.327 176.133 434.892 191.996C438.937 210.056 437.668 229.25 431.087 249.576C424.299 270.383 413.775 286.52 399.514 297.988L345.831 232.58C349.944 227.773 353.75 221.558 357.246 213.936C364.171 198.76 366.125 184.168 363.108 170.159C360.366 157.661 355.566 145.06 348.71 132.356C343.637 123.086 341.58 117.97 342.54 117.008C343.843 115.703 345.934 115.257 348.813 115.669L352.721 116.802L351.487 113.609C351.007 111.274 351.59 109.489 353.235 108.253L362.697 108.047L369.279 110.004C369.484 108.63 369.896 107.257 370.513 105.884C371.678 103.137 373.187 101.695 375.038 101.557C378.26 101.283 381.517 103.824 384.808 109.18L394.475 128.133C395.64 130.399 401.708 137.026 412.678 148.013Z" fill="#333333"/>
<path d="M408.05 150.279C420.117 165.661 427.145 180.837 429.133 195.807C431.875 215.653 430.676 233.644 425.533 249.782C420.254 266.469 410.896 280.821 397.458 292.838L352.104 237.009C356.149 231.378 359.92 224.511 363.417 216.408C370.41 200.133 372.536 185.678 369.793 173.043C367.188 161.163 362.731 149.249 356.424 137.3C351.419 127.824 349.019 122.948 349.225 122.673C350.116 121.506 351.864 121.266 354.47 121.952C355.772 122.296 357.007 122.776 358.172 123.395C357.486 121.952 356.972 120.373 356.629 118.656C355.875 115.291 356.252 113.06 357.761 111.961C359.2 110.862 362.114 111.137 366.502 112.785L372.57 115.463L372.673 111.343C373.016 108.596 373.667 107.017 374.627 106.605C376.272 105.987 378.638 108.218 381.723 113.3C384.26 117.558 386.899 123.017 389.642 129.678L395.606 136.167C400.474 141.18 404.622 145.884 408.05 150.279Z" fill="#FFD424"/>
<path d="M421.008 364.53C420.734 395.157 405.925 420.05 376.58 439.208C348.059 457.955 312.373 467.089 269.522 466.608C226.123 466.127 190.06 455.724 161.333 435.397C132.743 415.277 118.585 390.453 118.859 360.925C118.996 345.199 123.075 327.791 131.097 308.701C139.187 289.336 150.02 271.31 163.595 254.623C178.267 236.632 194.345 222.554 211.828 212.391C231.299 201.061 251.045 195.498 271.065 195.704C291.359 195.91 311.242 202.194 330.713 214.554C348.059 225.473 363.965 240.374 378.432 259.258C391.595 276.426 402.085 294.795 409.901 314.366C417.443 333.388 421.145 350.109 421.008 364.53Z" fill="#333333"/>
<path d="M414.941 363.191C414.666 392.376 400.474 416.307 372.364 434.985C344.803 453.32 310.693 462.247 270.037 461.767C229.311 461.355 195.065 451.672 167.298 432.719C138.845 413.354 124.756 389.114 125.03 359.998C125.167 345.096 129.143 328.547 136.959 310.349C144.775 292.014 155.3 274.881 168.532 258.95C182.724 241.919 198.219 228.563 215.016 218.881C233.665 208.099 252.519 202.812 271.579 203.018C290.639 203.224 309.391 208.923 327.834 220.117C344.426 230.142 359.646 243.842 373.495 261.216C386.385 277.422 396.566 294.795 404.039 313.336C411.444 331.671 415.078 348.289 414.941 363.191Z" fill="#FFD424"/>
<path d="M285.36 205.49L293.69 205.799C311.585 210.056 328.862 219.018 345.523 232.683C360.606 245.044 373.975 260.185 385.631 278.108L385.734 281.405C385.734 302.349 375.929 320.237 356.321 335.07C336.712 349.903 313.059 357.319 285.36 357.319C257.661 357.319 234.008 349.903 214.399 335.07C194.859 320.237 185.089 302.349 185.089 281.405C185.089 260.46 194.859 242.572 214.399 227.739C234.008 212.906 257.661 205.49 285.36 205.49Z" fill="#FB9E35"/>
<path d="M254.507 448.273C281.246 450.951 307.745 449.406 334.004 443.638C358.96 438.213 377.815 430.384 390.567 420.152C377.54 433.612 360.503 444.015 339.455 451.363C318.201 458.848 295.027 462.419 269.934 462.075C229.14 461.663 194.893 452.015 167.195 433.131C138.742 413.697 124.652 389.423 124.927 360.306C134.457 387.362 151.666 408.547 176.553 423.861C198.219 437.114 224.203 445.251 254.507 448.273Z" fill="#FB9E35"/>
<path d="M254.199 88.7848C293.622 86.5874 327.182 94.5875 354.881 112.785C381.072 130.09 395.332 151.687 397.663 177.575C400.132 204.837 389.402 228.185 365.474 247.619C341.683 266.984 310.556 277.765 272.094 279.962C233.357 282.091 200.276 275.156 172.851 259.155C145.153 242.881 130.069 221.181 127.601 194.056C125.133 166.657 136.034 142.794 160.305 122.468C184.644 102.141 215.942 90.9136 254.199 88.7848Z" fill="#333333"/>
<path d="M254.816 93.1112C290.536 91.1197 321.869 98.4331 348.813 115.051C375.689 131.669 390.293 152.717 392.624 178.193C394.886 203.67 384.191 226.091 360.537 245.456C336.884 264.889 307.197 275.602 271.476 277.593C235.687 279.585 204.355 272.271 177.479 255.653C150.534 239.035 135.931 217.988 133.668 192.511C131.337 167.035 142.033 144.614 165.755 125.249C189.409 105.815 219.096 95.1026 254.816 93.1112Z" fill="#FFD424"/>
<path d="M151.152 146.674L151.254 151.206L154.34 149.558C156.739 148.597 158.762 148.597 160.407 149.558C162.053 150.451 162.258 154.125 161.024 160.58C159.242 169.85 158.419 176.717 158.556 181.181C158.899 191.618 159.996 204.46 161.847 219.704C163.287 231.722 164.898 242.778 166.681 252.872C169.972 272.237 170.177 288.478 167.298 301.594C165.172 311.619 161.367 319.31 155.882 324.667L146.729 330.641L136.959 334.864C128.115 337.268 120.23 336.65 113.306 333.01C101.787 326.899 94.0743 316.598 90.1664 302.109C86.6012 288.855 85.9156 270.726 88.1095 247.722C89.6864 230.692 94.4857 213.524 102.507 196.219C110.323 181.799 114.368 173.695 114.643 171.91C116.357 161.61 117.694 154.571 118.654 150.794C120.299 144.476 122.699 141.009 125.852 140.39C127.704 139.978 129.555 141.215 131.406 144.099L133.668 148.425C135.245 146.914 136.994 145.438 138.913 143.996C142.821 141.18 145.701 140.116 147.552 140.803C149.472 141.489 150.672 143.446 151.152 146.674Z" fill="#333333"/>
<path d="M132.023 154.09L137.165 149.867C140.867 147.12 143.575 146.056 145.289 146.674C147.003 147.292 147.963 149.352 148.169 152.854L147.963 157.798C148.923 156.905 149.986 156.116 151.151 155.429C153.482 154.056 155.231 153.815 156.396 154.708C156.807 155.051 156.705 157.97 156.088 163.463L154.442 178.09C154.305 181.112 154.819 190.519 155.985 206.314C157.356 224.786 158.899 239.104 160.613 249.267C163.904 268.838 164.761 284.048 163.184 294.898C162.087 302.452 159.001 310.452 153.928 318.898C151.528 322.194 150.534 324.598 150.945 326.109C151.288 327.894 153.757 327.036 158.35 323.533L156.088 326.418C153.962 328.752 151.288 330.813 148.066 332.598C142.855 335.413 138.536 336.855 135.108 336.924C140.798 335.139 142.958 333.422 141.587 331.774C140.216 330.194 137.302 329.748 132.845 330.435C119.339 332.632 108.986 327.345 101.787 314.572C93.834 300.426 91.1259 279.07 93.6626 250.503C95.171 232.786 99.8674 214.794 107.752 196.528C115.431 181.558 119.305 173.524 119.373 172.425C120.196 165.352 121.293 159.378 122.664 154.502C124.241 148.734 125.886 145.918 127.6 146.056C129.314 146.262 130.789 148.94 132.023 154.09Z" fill="#FFD424"/>
<path d="M281.349 195.91C286.354 195.498 292.73 197.833 300.477 202.914C309.939 209.026 316.658 212.666 320.634 213.833C325.571 215.275 332.598 216.03 341.717 216.099C349.053 216.168 353.544 216.958 355.189 218.468C356.972 220.116 357.932 223.516 358.069 228.666C358.274 234.365 359.337 238.623 361.257 241.438L368.25 246.898C373.049 250.194 376.889 253.215 379.768 255.962C390.121 265.851 394.783 277.456 393.755 290.778C392.795 304.237 382.648 315.877 363.314 325.697C342.608 336.203 317.515 341.079 288.033 340.323C255.81 339.568 231.196 335.551 214.193 328.272C193.762 319.482 183.958 305.92 184.78 287.585C185.055 281.885 186.152 275.43 188.071 268.22C189.854 261.902 190.642 257.473 190.437 254.932C190.299 252.735 189.271 249.713 187.351 245.868C185.912 243.052 185.774 240.408 186.94 237.936C188.997 233.679 195.819 230.863 207.406 229.49C222.558 227.773 232.739 225.713 237.95 223.31C242.063 221.387 249.811 216.065 261.192 207.344C270.653 199.996 277.372 196.185 281.349 195.91Z" fill="#333333"/>
<path d="M283.2 200.443C287.794 200.168 293.279 202.503 299.655 207.447C307.334 213.284 313.127 216.786 317.035 217.953C321.492 219.258 328.348 220.117 337.604 220.529C345.077 220.803 349.602 221.662 351.179 223.104C352.824 224.614 353.784 227.911 354.058 232.992C354.332 238.555 355.361 242.606 357.143 245.147C358.789 247.482 364.582 251.602 374.524 257.507C383.642 264.993 388.167 274.915 388.099 287.276C388.03 296.409 382.785 304.993 372.364 313.027C364.274 319.345 353.955 324.736 341.409 329.199C336.267 331.053 328.382 332.667 317.755 334.04L280.321 335.894C266.197 335.345 251.833 333.354 237.23 329.92C224.135 326.899 214.982 323.808 209.771 320.65C203.189 316.667 198.459 312.409 195.579 307.877C191.877 302.177 190.231 294.933 190.643 286.143C190.848 281.13 191.74 274.984 193.317 267.705C194.619 261.456 195.168 257.13 194.962 254.726C194.825 252.872 194.002 250.263 192.494 246.898C191.397 244.563 191.397 242.263 192.494 239.997C193.796 237.25 200.481 235.018 212.548 233.301C227.083 231.31 236.75 229.078 241.549 226.606L262.94 211.773C273.019 204.425 279.772 200.649 283.2 200.443Z" fill="#FFF1AC"/>
<path d="M264.072 218.983C265.717 219.601 267.397 220.734 269.111 222.383C270.825 224.099 272.025 225.885 272.711 227.739C273.465 229.593 273.362 230.726 272.402 231.138C271.442 231.481 270.38 230.863 269.214 229.284L266.334 225.37L261.707 222.589C259.718 221.353 259.273 220.219 260.37 219.189L264.072 218.983Z" fill="#333333"/>
<path d="M300.683 225.061L298.832 227.945C298.009 229.112 297.084 229.49 296.055 229.078C295.37 228.872 295.198 228.117 295.541 226.812C295.815 225.507 296.432 224.237 297.392 223.001C298.283 221.765 299.277 220.872 300.374 220.322L302.74 220.116C303.631 220.666 303.665 221.49 302.843 222.589L300.683 225.061Z" fill="#333333"/>
<path d="M204.732 307.671C210.56 312.959 222.592 317.559 240.829 321.474C259.752 325.525 279.258 327.482 299.346 327.345C322.314 327.208 341.34 324.22 356.424 318.383C374.181 311.516 384.808 301.25 388.304 287.585C388.236 296.718 382.991 305.302 372.57 313.336C364.411 319.654 354.092 325.044 341.614 329.508C336.404 331.362 328.485 332.976 317.858 334.349L280.423 336.203C266.3 335.654 251.936 333.663 237.333 330.229C224.238 327.208 215.085 324.117 209.874 320.959C203.224 316.907 198.459 312.684 195.579 308.289C191.808 302.589 190.094 295.345 190.437 286.555C190.711 280.855 191.294 276.22 192.185 272.649L194.242 263.585L193.316 279.963C194.071 292.117 197.876 301.353 204.732 307.671Z" fill="#DCD096"/>
<path d="M303.666 189.833C296.672 183.172 293.759 175.962 294.924 168.202C296.09 160.442 301.026 154.468 309.733 150.279C318.441 146.021 328.382 144.751 339.557 146.468C350.664 148.185 359.749 152.373 366.81 159.034C373.804 165.764 376.718 172.974 375.552 180.665C374.387 188.425 369.45 194.434 360.743 198.691C352.036 202.949 342.094 204.185 330.919 202.4C319.812 200.683 310.727 196.494 303.666 189.833Z" fill="#333333"/>
<path d="M307.162 187.979C300.855 182.279 298.249 176.065 299.346 169.335C300.443 162.605 304.9 157.386 312.716 153.678C320.6 149.97 329.547 148.837 339.557 150.279C349.567 151.721 357.726 155.326 364.034 161.095C370.341 166.863 372.912 173.077 371.747 179.739C370.65 186.468 366.193 191.687 358.377 195.395C350.493 199.103 341.546 200.237 331.536 198.794C321.594 197.352 313.47 193.747 307.162 187.979Z" fill="white"/>
<path d="M326.188 176.854C325.091 176.923 324.131 176.58 323.308 175.824C322.486 175.069 322.04 174.107 321.971 172.94C321.903 171.841 322.246 170.88 323 170.056C323.754 169.232 324.714 168.786 325.879 168.717C326.976 168.648 327.936 168.992 328.759 169.747C329.582 170.502 330.027 171.464 330.096 172.631C330.164 173.73 329.822 174.691 329.067 175.515C328.313 176.339 327.353 176.786 326.188 176.854Z" fill="#333333"/>
<path d="M249.468 195.91C241.515 203.395 231.265 208.03 218.718 209.816C206.24 211.601 195.133 210.091 185.398 205.284C175.662 200.408 170.177 193.61 168.943 184.889C167.709 176.168 171.068 168.099 179.021 160.682C186.974 153.266 197.19 148.665 209.668 146.88C222.146 145.094 233.253 146.639 242.989 151.515C252.725 156.322 258.244 163.086 259.546 171.807C260.781 180.459 257.421 188.494 249.468 195.91Z" fill="#333333"/>
<path d="M246.074 193.747C238.944 200.202 229.791 204.219 218.615 205.799C207.44 207.378 197.499 206.039 188.791 201.782C180.153 197.593 175.251 191.721 174.085 184.168C172.988 176.614 175.97 169.644 183.032 163.258C190.163 156.803 199.316 152.785 210.491 151.206C221.666 149.627 231.608 150.931 240.315 155.12C249.022 159.378 253.924 165.283 255.021 172.837C256.187 180.322 253.205 187.292 246.074 193.747Z" fill="white"/>
<path d="M219.541 180.974C218.444 181.112 217.45 180.803 216.559 180.047C215.736 179.292 215.256 178.365 215.119 177.266C215.051 176.167 215.359 175.172 216.045 174.279C216.799 173.455 217.725 172.974 218.822 172.837C219.987 172.768 220.981 173.077 221.804 173.764C222.695 174.519 223.175 175.446 223.244 176.545C223.381 177.713 223.072 178.708 222.318 179.532C221.633 180.425 220.707 180.906 219.541 180.974Z" fill="#333333"/>
<path d="M15.4309 301.858C2.60694 307.068 -2.80318 318.289 1.40469 330.712C3.80919 337.925 6.81482 339.128 13.6276 335.721C16.2324 334.118 17.4347 331.513 17.4347 326.504C17.4347 319.892 17.8354 319.491 23.0452 320.092C31.8617 321.094 31.461 329.71 22.4441 339.128C16.0321 345.74 15.2306 347.744 16.2324 353.555C16.8336 357.362 18.6369 361.77 20.2399 363.373C22.8448 365.978 23.8467 365.978 28.4553 362.972C32.6632 360.167 33.4647 358.364 32.6632 354.757C31.6613 351.15 32.8636 349.146 37.4722 345.74C59.1127 330.311 39.6763 291.839 15.4309 301.858Z" fill="#F04E54"/>
<path fill-rule="evenodd" clip-rule="evenodd" d="M16.9264 305.477L16.9264 305.477C26.4975 301.522 35.5396 306.841 40.1614 316.018C44.7821 325.192 43.9504 336.312 35.1989 342.552L35.1716 342.571L35.1446 342.591C32.8084 344.318 30.7236 346.103 29.526 348.298C28.1682 350.788 28.205 353.267 28.8595 355.693C29.1424 357.008 28.986 357.315 28.9392 357.406C28.9378 357.409 28.9365 357.412 28.9353 357.414C28.7933 357.698 28.2905 358.374 26.2994 359.703C25.1784 360.434 24.4258 360.882 23.8764 361.15C23.8045 361.185 23.7405 361.215 23.684 361.24C23.5282 361.106 23.3098 360.905 23.0089 360.604C22.7734 360.369 22.1594 359.459 21.4856 357.81C20.8601 356.278 20.3486 354.516 20.1004 352.944L20.0961 352.917L20.0914 352.889C19.6285 350.205 19.7349 349.174 20.1596 348.179C20.7113 346.886 21.9966 345.214 25.2553 341.854L25.2726 341.836L25.2725 341.836C30.0179 336.88 33.1682 331.488 33.3454 326.596C33.4394 324.002 32.6833 321.435 30.7515 319.44C28.8745 317.502 26.2898 316.52 23.4923 316.202C22.2371 316.057 20.8786 315.918 19.6849 316.005C18.4027 316.099 16.6792 316.496 15.35 318.002C14.1672 319.343 13.8367 320.986 13.6927 322.145C13.5396 323.379 13.5188 324.876 13.5188 326.504C13.5188 328.744 13.2421 330.061 12.9024 330.862C12.6313 331.502 12.2768 331.926 11.7038 332.304C8.49716 333.882 7.50977 333.642 7.342 333.573C7.18913 333.511 6.29552 333.001 5.1196 329.474L5.11362 329.456L5.11358 329.456C3.2982 324.096 3.62699 319.262 5.5542 315.289C7.49076 311.296 11.2277 307.792 16.9048 305.486L16.9264 305.477ZM13.6276 335.721C16.2324 334.118 17.4347 331.513 17.4347 326.504C17.4347 319.892 17.8354 319.491 23.0452 320.092C31.8617 321.094 31.4609 329.71 22.4441 339.128C16.0321 345.74 15.2306 347.744 16.2324 353.555C16.8336 357.362 18.6369 361.77 20.2399 363.373C22.8448 365.978 23.8467 365.978 28.4553 362.972C32.6632 360.167 33.4647 358.364 32.6632 354.757C31.6613 351.15 32.8636 349.146 37.4722 345.74C59.1127 330.311 39.6763 291.839 15.4309 301.858C2.60694 307.068 -2.80318 318.289 1.40469 330.712C3.80919 337.925 6.81482 339.128 13.6276 335.721Z" fill="#333333"/>
<path d="M28.0548 365.777C22.6447 367.981 22.244 371.187 26.6522 377.399C29.4575 381.607 30.0586 381.607 35.6691 378.802C42.2815 375.195 42.2815 375.596 39.0755 368.783C36.671 363.373 35.068 362.972 28.0548 365.777Z" fill="#F04E54"/>
<path fill-rule="evenodd" clip-rule="evenodd" d="M26.6522 377.399C22.244 371.187 22.6447 367.981 28.0548 365.777C35.068 362.972 36.671 363.373 39.0755 368.783C40.6659 372.163 41.4674 373.767 41.064 374.966C40.6542 376.184 39.0012 376.984 35.6691 378.802C30.0586 381.607 29.4575 381.607 26.6522 377.399ZM33.8558 375.33C32.4656 376.025 31.5827 376.443 30.9375 376.682C30.701 376.382 30.3776 375.928 29.9104 375.227L29.8787 375.179L29.8456 375.133C28.834 373.707 28.2136 372.612 27.8716 371.781C27.556 371.015 27.5525 370.656 27.5575 370.574C27.5727 370.553 27.6036 370.515 27.6598 370.46C27.8914 370.236 28.4238 369.857 29.5212 369.408C31.2329 368.724 32.4154 368.318 33.2823 368.117C33.7649 368.005 34.045 367.983 34.1835 367.981C34.2036 368.004 34.2278 368.033 34.2564 368.069C34.5363 368.422 34.9264 369.089 35.4971 370.373L35.5143 370.412L35.5323 370.45C35.5862 370.565 35.6386 370.676 35.6895 370.784C36.3018 372.085 36.7084 372.948 36.9729 373.601C36.4331 373.93 35.7242 374.315 34.7132 374.864C34.4488 375.008 34.1639 375.162 33.8558 375.33ZM37.7112 373.092C37.7112 373.092 37.7097 373.094 37.7069 373.097C37.7099 373.094 37.7113 373.092 37.7112 373.092ZM37.2592 374.436C37.2604 374.445 37.2612 374.449 37.2614 374.449C37.2615 374.45 37.2609 374.445 37.2592 374.436Z" fill="#333333"/>
<path d="M83.8473 185.63C73.5985 198.776 67.9806 212.318 64.4784 233.088C61.7619 249.312 62.5593 269.174 65.8977 267.03C66.6131 266.571 66.4451 262.638 65.7324 258.381C63.11 244.069 67.7293 220.056 76.6781 202.524C80.9906 194.03 86.41 185.163 88.7268 183.002C90.8905 180.602 92.4242 178.271 91.9649 177.555C91.5056 176.84 87.8258 180.549 83.8473 185.63Z" fill="#333333"/>
<path d="M44.5366 224.844C37.9622 243.714 39.3741 275.809 47.5663 286.209C49.6846 288.721 49.4814 286.831 47.3231 279.798C42.7429 265.059 42.3568 255.541 45.7235 233.511L48.6635 213.439L44.5366 224.844Z" fill="#333333"/>
<path d="M448.352 340.539C440.939 345.148 437.532 352.361 438.334 361.378C438.935 366.788 439.736 367.59 445.547 368.191C450.957 368.792 452.36 367.99 453.963 363.582C457.77 353.363 467.989 355.567 467.989 366.788C467.989 373.401 464.382 375.805 452.16 377.809C442.141 379.412 437.933 384.622 437.933 395.041C437.933 401.453 438.734 402.856 442.942 403.858C449.755 405.461 453.963 403.657 453.963 398.848C453.963 394.44 457.77 392.637 466.787 392.637C484.019 392.637 494.839 362.981 482.817 348.554C472.397 336.331 459.974 333.526 448.352 340.539Z" fill="#F04E54"/>
<path fill-rule="evenodd" clip-rule="evenodd" d="M453.963 363.582C452.36 367.99 450.957 368.792 445.547 368.191C439.736 367.59 438.935 366.788 438.334 361.378C437.532 352.361 440.939 345.148 448.352 340.539C459.974 333.526 472.397 336.331 482.817 348.554C494.839 362.981 484.019 392.637 466.787 392.637C457.77 392.637 453.963 394.44 453.963 398.848C453.963 403.657 449.755 405.461 442.942 403.858C438.734 402.856 437.933 401.453 437.933 395.041C437.933 384.622 442.141 379.412 452.16 377.809C464.382 375.805 467.989 373.401 467.989 366.788C467.989 355.567 457.77 353.363 453.963 363.582ZM443.844 400.047C446.897 400.765 448.647 400.524 449.408 400.183C449.717 400.045 449.812 399.918 449.857 399.844C449.913 399.753 450.047 399.477 450.047 398.848C450.047 397.17 450.416 395.468 451.387 393.928C452.357 392.391 453.743 391.309 455.294 390.562C458.218 389.152 462.187 388.721 466.787 388.721C472.979 388.721 478.977 383.224 482.093 374.666C485.165 366.229 484.614 356.844 479.822 351.077C475.004 345.431 469.984 342.263 465.155 341.149C460.398 340.051 455.428 340.85 450.398 343.878C444.351 347.647 441.565 353.372 442.23 360.989C442.376 362.289 442.509 363.045 442.652 363.528C442.679 363.62 442.703 363.689 442.723 363.74C442.797 363.769 442.911 363.809 443.077 363.854C443.653 364.01 444.525 364.148 445.95 364.296L445.95 364.296L445.98 364.299C447.255 364.441 448.09 364.474 448.666 364.437C449.054 364.411 449.229 364.359 449.282 364.339C449.367 364.252 449.71 363.82 450.283 362.244L450.283 362.244L450.294 362.215C452.577 356.087 457.577 352.056 463.257 353.323C468.779 354.556 471.905 360.175 471.905 366.788C471.905 368.776 471.638 370.759 470.811 372.613C469.959 374.523 468.625 376.046 466.883 377.249C463.648 379.483 458.87 380.677 452.793 381.673L452.778 381.676C448.302 382.392 445.792 383.806 444.315 385.604C442.815 387.431 441.849 390.297 441.849 395.041C441.849 396.595 441.899 397.676 442.005 398.462C442.096 399.138 442.207 399.424 442.249 399.514C442.26 399.521 442.275 399.53 442.294 399.541C442.492 399.651 442.919 399.827 443.844 400.047ZM449.301 364.331C449.301 364.331 449.299 364.332 449.296 364.334C449.299 364.332 449.301 364.331 449.301 364.331ZM449.275 364.346C449.266 364.353 449.261 364.357 449.261 364.358C449.261 364.358 449.266 364.355 449.275 364.346ZM442.775 363.857C442.775 363.857 442.774 363.854 442.77 363.85C442.773 363.855 442.775 363.857 442.775 363.857ZM442.612 363.69C442.608 363.688 442.606 363.686 442.606 363.686C442.606 363.686 442.608 363.688 442.612 363.69Z" fill="#333333"/>
<path d="M437.331 408.065C434.927 410.47 435.929 422.292 438.534 423.294C439.936 423.895 443.543 423.895 446.549 423.294C451.157 422.292 451.959 421.29 451.959 415.68C451.959 409.067 449.354 406.663 442.14 406.663C440.137 406.663 437.933 407.264 437.331 408.065Z" fill="#F04E54"/>
<path fill-rule="evenodd" clip-rule="evenodd" d="M440.222 410.847C440.242 410.841 440.263 410.835 440.286 410.829C440.804 410.68 441.494 410.579 442.14 410.579C445.512 410.579 446.681 411.185 447.104 411.574C447.435 411.878 448.043 412.736 448.043 415.68C448.043 417.032 447.991 417.888 447.897 418.462C447.866 418.652 447.835 418.781 447.811 418.863C447.792 418.872 447.769 418.882 447.744 418.894C447.407 419.044 446.825 419.225 445.75 419.46C444.522 419.703 443.141 419.829 441.94 419.829C441.453 419.829 441.03 419.808 440.686 419.774C440.668 419.723 440.649 419.667 440.629 419.608C440.33 418.698 440.078 417.373 439.957 415.888C439.837 414.411 439.862 412.973 440.017 411.858C440.078 411.417 440.153 411.082 440.222 410.847ZM440.931 420.335C440.947 420.361 440.946 420.355 440.926 420.327C440.928 420.33 440.93 420.333 440.931 420.335ZM446.549 423.294C451.157 422.292 451.959 421.29 451.959 415.68C451.959 409.067 449.354 406.663 442.14 406.663C440.137 406.663 437.933 407.264 437.331 408.065C434.927 410.47 435.929 422.292 438.534 423.294C439.936 423.895 443.543 423.895 446.549 423.294ZM440.335 410.537C440.334 410.537 440.332 410.542 440.327 410.551C440.332 410.542 440.335 410.538 440.335 410.537Z" fill="#333333"/>
<path d="M421.053 4.07545C415.042 7.08107 411.435 10.6878 408.63 16.6991C403.821 26.3171 403.62 28.1205 406.626 38.3396C408.229 44.5512 409.632 45.9538 413.639 45.9538C421.855 45.9538 426.463 42.3471 426.463 35.9351C426.463 30.3246 430.871 23.9126 434.679 23.9126C439.287 23.9126 444.096 28.1205 445.298 33.1298C447.102 40.143 443.094 45.9538 430.471 53.9688L420.051 60.5812L420.853 72.4033C422.055 87.4315 424.059 89.4352 433.877 85.6281C440.69 83.0232 441.491 82.0213 441.091 76.4108C440.489 70.8003 441.491 69.5981 450.107 64.9895C461.529 58.7778 466.338 51.5643 467.941 38.3396C469.945 20.907 461.93 7.28145 446.701 2.0717C436.883 -1.1343 430.671 -0.733555 421.053 4.07545Z" fill="#F04E54"/>
<path fill-rule="evenodd" clip-rule="evenodd" d="M412.156 18.403L412.178 18.355C414.593 13.1806 417.547 10.2066 422.804 7.5779C427.358 5.30092 430.804 4.22117 434.097 3.9727C437.378 3.72505 440.836 4.27813 445.459 5.78553C452.236 8.11006 457.259 12.2375 460.405 17.6027C463.566 22.9932 464.97 29.8751 464.052 37.881C463.295 44.1144 461.826 48.5659 459.451 52.1179C457.082 55.6608 453.594 58.6342 448.248 61.5432C446.093 62.6958 444.285 63.7032 442.834 64.653C441.391 65.598 440.079 66.6254 439.075 67.8901C436.808 70.7472 436.88 73.8315 437.189 76.7564C437.282 78.0791 437.277 78.8356 437.21 79.3255C437.18 79.5459 437.145 79.6507 437.131 79.6869C437.121 79.7135 437.116 79.7191 437.108 79.7299C437.077 79.7691 436.876 80.0042 436.091 80.4231C435.297 80.8467 434.168 81.3245 432.479 81.9705L432.461 81.9771C430.06 82.9081 428.557 83.3066 427.592 83.3752C427.156 83.4061 426.973 83.3565 426.94 83.3461C426.94 83.346 426.94 83.3455 426.94 83.3461C426.942 83.3482 426.944 83.3518 426.921 83.3284C426.764 83.169 426.295 82.5091 425.832 80.4759C425.389 78.528 425.055 75.8271 424.758 72.1147L424.116 62.6397L432.569 57.2751C438.987 53.2 443.682 49.41 446.492 45.4337C449.475 41.214 450.288 36.8415 449.099 32.1848C448.282 28.8136 446.301 25.833 443.836 23.6886C441.382 21.553 438.149 19.9967 434.679 19.9967C432.634 19.9967 430.852 20.843 429.488 21.8334C428.1 22.8413 426.894 24.1733 425.912 25.6074C423.977 28.4333 422.547 32.196 422.547 35.9351C422.547 38.1103 421.821 39.4038 420.72 40.2637C419.476 41.2361 417.248 42.038 413.639 42.038C412.831 42.038 412.442 41.962 412.263 41.9052C412.159 41.8723 412.143 41.8573 412.094 41.8042C411.995 41.6986 411.763 41.3964 411.448 40.6413C411.133 39.8863 410.799 38.8391 410.418 37.3611L410.401 37.2976L410.383 37.2347C408.856 32.0447 408.401 29.7348 408.596 27.6605C408.793 25.5709 409.682 23.3506 412.132 18.4503L412.156 18.403ZM445.298 33.1298C444.096 28.1205 439.287 23.9126 434.679 23.9126C430.871 23.9126 426.463 30.3246 426.463 35.9351C426.463 42.3471 421.855 45.9538 413.639 45.9538C409.632 45.9538 408.229 44.5512 406.626 38.3396C403.62 28.1205 403.821 26.3171 408.63 16.6991C411.435 10.6878 415.042 7.08107 421.053 4.07545C430.671 -0.733554 436.883 -1.13431 446.701 2.0717C461.93 7.28145 469.945 20.907 467.941 38.3396C466.338 51.5643 461.529 58.7778 450.107 64.9895C441.491 69.5981 440.489 70.8003 441.091 76.4108C441.491 82.0213 440.69 83.0232 433.877 85.6281C424.059 89.4352 422.055 87.4315 420.853 72.4033L420.051 60.5812L430.471 53.9688C443.094 45.9538 447.102 40.143 445.298 33.1298Z" fill="#333333"/>
<path d="M435.079 90.4367C426.864 92.6409 426.263 93.8431 428.667 102.66C430.27 108.871 431.473 110.073 436.282 110.073C445.499 110.073 449.306 105.866 447.703 97.6502C446.1 89.2345 443.896 88.0322 435.079 90.4367Z" fill="#F04E54"/>
<path fill-rule="evenodd" clip-rule="evenodd" d="M436.11 94.2146L436.11 94.2146C438.244 93.6324 439.728 93.342 440.795 93.2739C441.839 93.2073 442.14 93.3782 442.163 93.3914L442.163 93.3915C442.179 93.4005 442.226 93.4272 442.309 93.5281C442.402 93.6412 442.549 93.8575 442.727 94.2496C443.102 95.0784 443.472 96.366 443.856 98.3829L443.86 98.4002C444.544 101.908 443.877 103.518 443.162 104.298C442.353 105.182 440.454 106.158 436.282 106.158C435.195 106.158 434.604 106.084 434.266 105.997C434.118 105.958 434.054 105.926 434.039 105.918C434.029 105.913 434.024 105.91 434.009 105.895C433.967 105.854 433.767 105.638 433.469 104.925C433.166 104.204 432.846 103.182 432.459 101.681L432.452 101.655L432.445 101.629C431.844 99.4236 431.508 97.9602 431.392 96.9098C431.329 96.341 431.349 96.0413 431.368 95.9112C431.453 95.8453 431.63 95.7283 431.96 95.5705C432.777 95.1807 434.042 94.7693 436.094 94.2188L436.11 94.2146ZM431.299 95.9725C431.3 95.9726 431.306 95.9674 431.314 95.9565C431.303 95.967 431.299 95.9724 431.299 95.9725ZM431.383 95.8347C431.384 95.8314 431.385 95.8296 431.384 95.8295ZM428.667 102.66C430.27 108.871 431.473 110.073 436.282 110.073C445.499 110.073 449.306 105.866 447.703 97.6502C446.1 89.2345 443.896 88.0322 435.079 90.4367C426.864 92.6409 426.263 93.8431 428.667 102.66Z" fill="#333333"/>
<path d="M456.026 178.566C458.63 186.581 459.232 224.853 457.027 235.673C455.825 241.684 452.419 251.703 449.814 257.714C445.606 266.932 445.406 267.934 448.612 264.126C450.816 261.522 454.623 254.308 457.027 248.096C463.039 232.868 463.84 192.593 458.23 181.572C456.426 177.765 455.424 176.362 456.026 178.566Z" fill="#333333"/>
<path d="M476.063 249.9C474.259 263.725 468.048 279.755 459.432 292.379L452.419 302.799L459.432 295.986C468.849 286.969 476.263 269.737 478.067 253.106C479.67 237.476 478.067 234.871 476.063 249.9Z" fill="#333333"/>
</svg>
