<svg width="372" height="60" viewBox="0 0 372 60" fill="none" xmlns="http://www.w3.org/2000/svg">
<g clip-path="url(#clip0_415_34)">
<path d="M31.2852 3.07983C34.7434 3.07983 37.8232 3.89033 40.5249 5.51132C43.2266 7.07829 45.3339 9.26663 46.8468 12.0763C48.3597 14.832 49.1162 17.9389 49.1162 21.397V22.4507C49.1162 25.9088 48.3597 29.0427 46.8468 31.8525C45.3339 34.6622 43.2266 36.8776 40.5249 38.4986C37.8232 40.0655 34.7434 40.849 31.2852 40.849H17.912V58.8421H0V3.07983H31.2852ZM17.912 27.8H25.2875C27.1787 27.8 28.5836 27.3137 29.5021 26.3411C30.4747 25.3685 30.961 24.0447 30.961 22.3696V21.7212C30.961 19.9922 30.4747 18.6684 29.5021 17.7498C28.5836 16.7772 27.1787 16.2909 25.2875 16.2909H17.912V27.8Z" fill="#F04E54"/>
<path d="M139.106 16.0479H157.91L142.105 33.3115L158.315 58.8422H139.998L131.001 44.1721L125.409 49.6025V58.8422H109.28V0H125.409V32.4199L139.106 16.0479Z" fill="#F04E54"/>
<path d="M177.685 10.8607L185.223 0.0810547H200.784L200.947 0.405254L188.06 10.8607H177.685ZM185.466 15.0753C193.301 15.0753 199.271 16.9124 203.378 20.5866C207.539 24.2609 209.619 29.8804 209.619 37.445V40.2007H177.523C177.523 43.2806 178.199 45.604 179.549 47.171C180.954 48.7379 183.143 49.5214 186.114 49.5214C188.816 49.5214 190.788 48.9541 192.031 47.8194C193.328 46.6847 193.976 45.1718 193.976 43.2806H209.619C209.619 48.4678 207.647 52.5203 203.702 55.4381C199.758 58.3559 194.003 59.8147 186.439 59.8147C178.496 59.8147 172.336 57.9776 167.959 54.3034C163.583 50.5751 161.394 44.9556 161.394 37.445C161.394 30.0965 163.529 24.5311 167.797 20.7487C172.066 16.9664 177.955 15.0753 185.466 15.0753ZM186.114 25.3686C181.035 25.3686 178.199 27.7731 177.604 32.582H193.328C193.328 30.3667 192.679 28.6106 191.383 27.3138C190.14 26.017 188.384 25.3686 186.114 25.3686Z" fill="#F04E54"/>
<path d="M248.068 58.7611L246.69 52.6824C243.557 57.3833 239.018 59.7337 233.074 59.7337C227.293 59.7337 222.835 57.8425 219.701 54.0602C216.567 50.2779 215 44.6855 215 37.2829C215 29.9344 216.567 24.396 219.701 20.6677C222.835 16.8854 227.293 14.9942 233.074 14.9942C237.991 14.9942 241.99 16.6422 245.069 19.9382V0H261.198V58.7611H248.068ZM238.099 26.9085C233.452 26.9085 231.129 29.6912 231.129 35.2567V39.5523C231.129 45.0637 233.452 47.8194 238.099 47.8194C240.477 47.8194 242.26 46.9819 243.448 45.3068C244.637 43.6318 245.232 41.4435 245.232 38.7418V36.0672C245.232 33.3655 244.637 31.1772 243.448 29.5021C242.26 27.7731 240.477 26.9085 238.099 26.9085Z" fill="#B9B9B9"/>
<path d="M293.131 14.9941C300.966 14.9941 306.937 16.8312 311.043 20.5055C315.204 24.1798 317.284 29.7992 317.284 37.3639V40.1196H285.188C285.188 43.1994 285.864 45.5229 287.215 47.0898C288.62 48.6568 290.808 49.4403 293.78 49.4403C296.481 49.4403 298.454 48.8729 299.696 47.7382C300.993 46.6035 301.642 45.0906 301.642 43.1994H317.284C317.284 48.3866 315.312 52.4391 311.368 55.3569C307.423 58.2747 301.669 59.7336 294.104 59.7336C286.161 59.7336 280.001 57.8965 275.625 54.2222C271.248 50.4939 269.06 44.8745 269.06 37.3639C269.06 30.0153 271.194 24.4499 275.463 20.6676C279.731 16.8853 285.621 14.9941 293.131 14.9941ZM293.78 25.2874C288.701 25.2874 285.864 27.6919 285.27 32.5009H300.993C300.993 30.2855 300.345 28.5294 299.048 27.2326C297.805 25.9358 296.049 25.2874 293.78 25.2874Z" fill="#B9B9B9"/>
<path d="M371.719 58.7611H352.916L344.811 45.3068H344.487L336.301 58.7611H318.389L334.842 36.0672L320.01 15.9668H338.975L345.783 27.3138H346.108L352.916 15.9668H370.747L355.671 36.4724L371.719 58.7611Z" fill="#B9B9B9"/>
<path d="M84.0444 36.8428C84.0444 40.4916 81.0623 43.4622 77.3679 43.4622C73.6735 43.4622 70.6914 40.4916 70.6914 36.8428C70.6914 33.194 73.6735 30.2234 77.3679 30.2234C81.0623 30.2234 84.0444 33.194 84.0444 36.8428Z" fill="white"/>
<path fill-rule="evenodd" clip-rule="evenodd" d="M77.3679 31.2234C74.219 31.2234 71.6914 33.753 71.6914 36.8428C71.6914 39.9326 74.219 42.4622 77.3679 42.4622C80.5167 42.4622 83.0444 39.9326 83.0444 36.8428C83.0444 33.753 80.5167 31.2234 77.3679 31.2234ZM69.6914 36.8428C69.6914 32.635 73.1279 29.2234 77.3679 29.2234C81.6078 29.2234 85.0444 32.635 85.0444 36.8428C85.0444 41.0506 81.6078 44.4622 77.3679 44.4622C73.1279 44.4622 69.6914 41.0506 69.6914 36.8428Z" fill="#B9B9B9"/>
<path d="M77.3679 49.9443C83.3055 49.9443 88.3311 46.0478 89.9845 40.6814H99.3648C97.5341 51.0834 88.3865 58.9999 77.3679 58.9999C66.3494 58.9999 57.2018 51.0834 55.3711 40.6814H64.7514C66.4048 46.0478 71.4304 49.9443 77.3679 49.9443Z" fill="white"/>
<path fill-rule="evenodd" clip-rule="evenodd" d="M54.1797 39.6814H65.4896L65.707 40.387C67.2336 45.3418 71.8773 48.9443 77.3679 48.9443C82.8585 48.9443 87.5022 45.3417 89.0288 40.387L89.2462 39.6814H100.556L100.35 40.8547C98.4353 51.7318 88.8749 59.9999 77.3679 59.9999C65.8609 59.9999 56.3005 51.7318 54.3862 40.8547L54.1797 39.6814ZM56.5973 41.6814C58.8009 51.025 67.2568 57.9999 77.3679 57.9999C87.479 57.9999 95.9349 51.025 98.1385 41.6814H90.7019C88.7129 47.0919 83.4895 50.9443 77.3679 50.9443C71.2463 50.9443 66.0229 47.0919 64.0339 41.6814H56.5973Z" fill="#B9B9B9"/>
<path d="M77.3677 13.6858C89.2847 13.6858 99.1148 22.554 100.525 34.0043H89.2226C87.9357 28.6903 83.1163 24.7414 77.3677 24.7414C71.6191 24.7414 66.7998 28.6903 65.5129 34.0043H54.2107C55.6207 22.554 65.4508 13.6858 77.3677 13.6858Z" fill="#F04E54"/>
</g>
<defs>
<clipPath id="clip0_415_34">
<rect width="372" height="60" fill="white"/>
</clipPath>
</defs>
</svg>
